<svg xmlns:dc="http://purl.org/dc/elements/1.1/" xmlns:cc="http://creativecommons.org/ns#" xmlns:rdf="http://www.w3.org/1999/02/22-rdf-syntax-ns#" xmlns:svg="http://www.w3.org/2000/svg" xmlns="http://www.w3.org/2000/svg" xmlns:sodipodi="http://sodipodi.sourceforge.net/DTD/sodipodi-0.dtd" xmlns:inkscape="http://www.inkscape.org/namespaces/inkscape" version="1.1" x="0px" y="0px" viewBox="0 0 100 125"><g transform="translate(0,-952.36218)"><path style="text-indent:0;text-transform:none;direction:ltr;block-progression:tb;baseline-shift:baseline;color:#000000;enable-background:accumulate;" d="m 36.986548,958.36216 c -7.80505,0 -14.00319,7.2472 -14.00319,16 0,4.4238 1.80686,9.2936 4.40725,13.1562 0.55592,0.8258 1.1586,1.5879 1.78166,2.3126 l -3.00069,7.8124 c -5.76935,3.32794 -10.3529,5.08484 -14.03445,7.90634 -3.7539202,2.877 -6.4259102,6.9414 -8.1268502,14.5937 -0.0848,0.9716 0.36374,1.7664 1.03149,2.375 2.64393,2.1923 6.4114402,3.1881 9.3146202,3.9376 4.68437,1.198 10.08215,2.0783 14.40954,2.625 -1.28939,2.9243 -1.94073,6.0515 -1.78166,9.3124 0.0828,1.9599 1.24141,3.879 2.87566,5.375 1.63424,1.4962 3.80366,2.5938 6.12639,2.5938 l 24.00547,0 c 2.33387,0 4.54018,-1.1454 6.18891,-2.6562 1.64874,-1.511 2.81315,-3.3994 2.81315,-5.3438 0,-1.0089 -0.0893,-2.0068 -0.25006,-3 4.25088,0.028 10.34452,0.1866 15.78485,-0.2812 3.54505,-0.5976 7.82914,-0.5859 10.34611,-3.0938 0.795,-0.8698 1.11137,-1.7807 1.12525,-2.719 -0.51094,-6.6406 -2.34433,-11.6213 -5.59502,-15.7812 -2.26701,-2.9011 -5.24649,-5.3758 -8.87703,-7.8125 4.57237,-8.55604 5.40422,-18.96924 3.0632,-27.46874 -1.22555,-4.4497 -3.32402,-8.3913 -6.28268,-11.25 -2.95867,-2.8589 -6.80915,-4.5938 -11.31508,-4.5938 -3.95715,0 -6.82901,1.2714 -8.81451,3.3438 -1.9855,2.0722 -3.07831,4.8241 -3.87588,7.7812 -1.47123,5.4549 -2.03658,11.6582 -4.28223,15.8438 -1.6744,-0.091 -3.5441,0.1964 -4.93862,0.6877 0.67698,-0.7783 1.29998,-1.6314 1.87542,-2.53121 2.48106,-3.8794 4.03217,-8.74149 4.03217,-13.125 0,-8.75279 -6.19814,-16 -14.00319,-16 z m 0,2 c 6.55762,0 12.00274,6.184 12.00274,14 0,0.061 7e-4,0.1263 0,0.1875 -2.81156,-2.7561 -6.00054,-3.2307 -8.68949,-3.4375 -1.64883,-0.1268 -3.12373,-0.2181 -4.34474,-0.625 -1.221,-0.4069 -2.20111,-1.062 -3.09445,-2.625 -0.60505,-0.6319 -0.89796,-0.477 -1.5316,-0.25 l -6.28268,5.5 c 0.54773,-7.2106 5.73909,-12.75 11.94022,-12.75 z m 30.00684,4 c 3.99601,0 7.27215,1.4839 9.90851,4.0312 2.63636,2.5475 4.60132,6.1685 5.75131,10.3438 2.18206,7.9225 1.40865,17.7914 -2.81314,25.81254 -0.95301,-0.6036 -1.93335,-1.2031 -2.96943,-1.8125 l -1.40657,-4.84384 c 0.74449,-0.7001 1.43823,-1.4692 2.09423,-2.3124 2.624,-3.3732 4.46977,-7.795 4.46977,-12.2188 0,-3.2778 -1.32913,-6.4884 -3.34452,-8.9062 -2.01538,-2.418 -4.75733,-4.0938 -7.65799,-4.0938 -1.24287,0 -2.17869,0.8522 -2.75063,1.8125 -1.17008,2.1192 -1.51606,4.4151 -2.43805,6.5313 -0.24822,0.5613 -0.51543,0.7484 -0.78143,1.0624 -0.0662,-0.3629 -0.14316,-0.7586 -0.34383,-1.1874 -0.24248,-0.5182 -0.77212,-1.1034 -1.5316,-1.2188 -1.79965,-0.2734 -3.91085,0.3111 -5.72005,1.3438 -1.11764,0.6378 -2.14331,1.4957 -2.78189,2.5312 0.49579,-2.4749 0.92117,-4.9554 1.5316,-7.2188 0.75747,-2.8083 1.7882,-5.248 3.40703,-6.9374 1.61883,-1.6896 3.83212,-2.7188 7.37668,-2.7188 z m -35.10175,5.4062 c 1.00273,1.2784 2.16816,2.2019 3.43828,2.625 1.59213,0.5307 3.24295,0.5644 4.84486,0.6876 3.05264,0.2346 5.86543,0.5618 8.56445,4.25 -0.50773,3.1279 -1.75561,6.4137 -3.46954,9.0937 -2.27003,3.5495 -5.29273,5.9375 -8.28314,5.9375 -2.40523,0 -5.50731,-2.4025 -7.90805,-5.9688 -2.1134,-3.1392 -3.68766,-7.0922 -4.03217,-10.625 z m 39.13392,2.5938 c 2.10048,0 4.35967,1.2929 6.09514,3.375 1.73546,2.0821 2.90691,4.9028 2.90691,7.625 0,3.8604 -1.65503,7.9129 -4.03217,10.9688 -1.86765,2.1498 -4.82705,4.9712 -7.97056,5.0312 -2.51637,0 -5.59343,-1.9756 -7.97057,-5.0312 -2.37714,-3.0559 -4.03217,-7.1084 -4.03217,-10.9688 0,-0.8822 0.96119,-2.0635 2.43805,-2.9062 1.47687,-0.843 3.34754,-1.2861 4.40726,-1.125 0.24371,0.7774 0.45423,1.7178 0.6564,2.344 0.56239,0.814 1.11725,0.7839 1.9692,0.5625 1.06472,-0.5752 1.66984,-1.6175 2.15674,-2.7188 0.87505,-2.1651 1.38756,-4.2458 2.34428,-6.3124 0.22266,-0.5422 0.72322,-0.6679 1.03149,-0.8441 z m -16.97262,11.6562 c 0.10139,2.4885 0.76581,4.9511 1.81291,7.2188 -1.14846,-0.7206 -2.40586,-1.2683 -3.71959,-1.5938 0.85149,-1.7329 1.42801,-3.65 1.90668,-5.625 z m -4.84485,7.4063 c 6.6781,0 12.06525,6.2337 12.06525,13.93754 0,0.335 -0.0112,0.6711 -0.0312,1 l -6.65777,0 c -0.83356,-1.5079 -2.18183,-1.8424 -3.68834,-1.875 -1.20273,0.1202 -2.2646,0.7258 -3.0632,1.5938 l -4.3448,-2.5938 c -0.51854,-0.2674 -0.79791,-0.018 -1.21903,0.1562 l -2.40679,2.4063 -2.65686,-1.7813 c 0.48033,-7.19304 5.64241,-12.84374 12.00274,-12.84374 z m -18.50422,0.031 c 1.92541,1.7721 4.06706,2.9062 6.28268,2.9062 0.81803,0 1.60575,-0.1437 2.37554,-0.375 -1.52448,1.7586 -2.71655,3.9294 -3.40703,6.34384 -3.11247,-0.1382 -5.38179,-0.90424 -7.75176,-2.37504 z m 31.35089,7.6562 c 1.86785,1.38964 3.90605,2.25004 5.97012,2.25004 1.98367,0 3.94333,-0.7995 5.75131,-2.09384 l 1.12525,3.87504 -7.84554,10.4376 -4.00091,-6.375 c 0.0594,-0.6015 0.0937,-1.2243 0.0937,-1.8438 0,-2.2162 -0.38788,-4.3273 -1.094,-6.25004 z m -35.10175,0.375 c 2.58362,1.62904 5.22033,2.59844 8.56445,2.81254 -0.1684,0.9973 -0.25005,2.0092 -0.25005,3.0625 0,4.3828 1.52717,8.3785 4.00091,11.2812 -3.9875,2.9649 -7.36669,6.5298 -9.56468,10.5313 -4.35908,-0.5329 -10.0515,-1.4297 -14.84714,-2.6563 -2.68354,-0.7642 -7.2688102,-1.5342 -8.8457602,-4.125 1.63723,-7.2289 3.96616,-10.6601 7.3454202,-13.25 3.31207,-2.5383 7.78601,-4.3184 13.59685,-7.65624 z m 49.32375,5.18754 c 5.55063,3.293 9.70088,6.3655 12.56536,10.0313 2.99036,3.8267 4.66164,8.3317 5.15743,14.6562 -1.12706,3.221 -6.76612,3.4902 -9.65846,3.75 -5.42338,0.4664 -11.72588,0.2712 -16.0349,0.25 -1.69067,-6.5151 -6.19406,-12.4458 -9.4084,-16.4688 1.65034,-1.848 2.92499,-4.156 3.62583,-6.75 l 3.62583,5.75 c 0.34396,0.553 1.2719,0.588 1.65663,0.063 z m -33.13256,0.9375 4.34474,2.5938 c 0.46968,0.2813 1.15933,0.082 1.40657,-0.4063 0.29137,-0.5826 1.26619,-1.2517 2.188,-1.3437 1.0859,-0.074 1.53797,0.532 1.9692,1.2187 0.12925,0.3928 0.52412,0.6823 0.93772,0.6875 l 7.03285,0 c -1.1858,6.2519 -6.02925,10.9062 -11.81519,10.9062 -6.28789,0 -11.42208,-5.4904 -12.00274,-12.5624 l 2.21926,1.4687 c 0.38432,0.264 0.95549,0.2083 1.28154,-0.125 z m -2.12548,12.7191 c 0.35375,5.7537 3.82721,9.0178 7.56422,9.1562 3.87121,0.1433 7.73014,-3.0618 8.37691,-8.75 0.17179,-0.1331 0.33384,-0.2959 0.50012,-0.4375 3.96964,4.9883 9.53342,12.7103 9.53342,20.0625 0,1.0556 -0.83605,2.636 -2.188,3.875 -1.35195,1.239 -3.14655,2.125 -4.8136,2.125 l -24.00547,0 c -1.67818,0 -3.44902,-0.8419 -4.78234,-2.0625 -1.33331,-1.2206 -2.16962,-2.8262 -2.21925,-4 -0.37809,-7.7509 4.445,-14.8792 11.59639,-20.1563 0,0 0.43906,0.1653 0.4376,0.1876 z m 2.188,1.5 c 1.82432,1.013 3.84475,1.5937 6.00137,1.5937 1.93049,0 3.79682,-0.4279 5.46999,-1.25 -0.9652,3.7549 -3.60314,5.4025 -6.03262,5.3125 -2.35655,-0.087 -4.73252,-1.7815 -5.43874,-5.6562 z" fill="#000000" fill-opacity="1" stroke="none" marker="none" visibility="visible" display="inline" overflow="visible"/></g><text x="0" y="115" fill="#000000" font-size="5px" font-weight="bold" font-family="'Helvetica Neue', Helvetica, Arial-Unicode, Arial, Sans-serif">Created by sandra</text><text x="0" y="120" fill="#000000" font-size="5px" font-weight="bold" font-family="'Helvetica Neue', Helvetica, Arial-Unicode, Arial, Sans-serif">from the Noun Project</text></svg>