<svg xmlns="http://www.w3.org/2000/svg" data-name="Слой 1" viewBox="0 0 100 125" x="0px" y="0px"><title>Безымянный-1-01-01-01-01-01-01-01-01-01-01-01-01-01-01-01-01-01-01-01-01-01-01-01-01-01-01-01-01-01-01-01-01</title><path d="M41.752,41.80095a59.67067,59.67067,0,0,1-6.458,3.20438c-3.436,1.23377-7.02382-.39246-7.76633-3.54507a11.34706,11.34706,0,0,1,.09595-5.24456c1.03654-4.01059,1.30845-4.17625,5.40062-8.0188-0.66389-.39019-1.29783-0.77695-1.94474-1.14052-3.66571-2.06032-5.1826-5.36316-4.12177-9.4069a8.752,8.752,0,0,1,1.742-3.729c2.67645-2.841,5.25356-2.54309,9.46771.04162,0.04075-.85679.13121-1.5845,0.09978-2.3069a10.34854,10.34854,0,0,1,2.48952-7.40165,5.7424,5.7424,0,0,1,6.89522-1.85382c2.62238,1.04951,4.38367,3.14557,4.25263,6.00567-0.158,3.44726-.86414,6.86955-1.33823,10.30193-0.036.26138-.11354,0.517-0.22629,1.0169,1.7518-2.03677,3.36193-3.80182,4.85087-5.6638,2.62439-3.28183,7.94725-3.62155,10.64417-.44448a5.45521,5.45521,0,0,1,.87337,5.69819,8.70657,8.70657,0,0,1-5.34524,5.36233c-0.876.30461-1.72115,0.69785-2.87854,1.17293a18.30086,18.30086,0,0,1,6.87841,7.12331,11.62585,11.62585,0,0,1,1.527,4.64758c0.08054,2.75464-2.51259,4.32513-5.56622,3.63711-1.77957-.401-3.5258-0.94991-5.35874-1.45188,0.53311,2.17671.91752,4.53927-.49115,6.44017a10.79406,10.79406,0,0,1-3.89818,2.91545c-2.45913,1.21562-6.69818-.2952-8.472-2.7752-2.2291,6.76737-2.04365,19.67526-.5292,26.09384,0.64038-1.94672,1.22582-4.27751,2.163-6.45709,1.77722-4.13316,5.08892-6.98933,8.77022-9.31331,5.10633-3.22374,10.38445-6.17463,15.57332-9.2687,0.91125-.54336,1.70731-1.28446,2.63144-1.79964a4.7,4.7,0,0,1,1.59342-.24755c0.026,0.49928.072,0.99876,0.067,1.49771a1.23719,1.23719,0,0,1-.21218.48328C70.17319,53.07775,67.253,58.818,64.16257,64.46506a52.79146,52.79146,0,0,1-4.51915,6.80409,7.85367,7.85367,0,0,1-2.88724,1.84773c-4.18664,2.0073-8.72163,3.36571-12.22549,6.62028a1.53735,1.53735,0,0,0-.39346,1.07783,13.9844,13.9844,0,0,0,.33739,2.45264C45.10282,86.03,45.7297,88.794,46.4454,91.53436c0.342,1.30942,1.01965,2.53937,1.28468,3.85772a9.454,9.454,0,0,1-.22751,2.68358c-0.71683-.56768-1.80238-0.99728-2.07691-1.73052a43.09309,43.09309,0,0,1-1.3633-5.5c-0.83176-3.62592-1.73482-7.238-2.45678-10.88576-0.50351-2.54385-.82627-5.13009-1.09931-7.71119a77.73259,77.73259,0,0,1-.71439-9.37121c0.07044-4.3659.47922-8.7314,0.87407-13.0852C40.91583,47.0369,41.40411,44.30362,41.752,41.80095Zm7.70416-10.5171a5.76241,5.76241,0,0,1,2.01187.67632,25.49055,25.49055,0,0,1,3.06721,3.212c2.27638,2.79582,5.39139,3.44316,8.73278,3.55974,0.94311,0.0329,1.58184-.41556,1.2334-1.40926-1.018-2.90172-2.08265-5.72777-4.73882-7.71576a16.02393,16.02393,0,0,0-7.27805-3.19805c0.17283,2.34418-1.74675,3.40958-3.00844,4.89676a5.42993,5.42993,0,0,1-1.78027.74208c-1.47527.03513-1.84148,0.91926-2.08657,2.11946a11.94865,11.94865,0,0,1-.91865,3.03474c-1.12874,2.2128-.649,4.35464.09177,6.48741a5.38952,5.38952,0,0,0,1.24019,2.1119c1.15887,1.10031,5.32766,1.27736,6.57681.4243,1.47518-1.00738,1.98192-3.31329,1.24254-5.68488a3.33193,3.33193,0,0,0-.324-0.82379c-1.241-1.91726-2.44668-3.86091-3.77568-5.71588C49.08641,33.08546,48.37028,32.32,49.45619,31.28384ZM29.11306,39.07976a3.93237,3.93237,0,0,0,2.45095,3.5324c2.95925,1.06861,5.34446-.2141,7.48623-1.98719a12.31258,12.31258,0,0,0,2.76831-3.36941c0.62236-1.09753.66763-2.51048,1.223-3.66088,0.63664-1.31866.44761-2.01807-.95121-2.54357a9.36457,9.36457,0,0,1-1.62912-1.31328,2.85292,2.85292,0,0,0-1.55581-.764C33.41872,29.76351,29.26856,32.67727,29.11306,39.07976ZM50.17319,9.88034l-0.47-.116c0.01872-2.75231-1.39-4.7615-3.63019-5.17757a4.38744,4.38744,0,0,0-5.15509,3.0764c-1.59307,4.94576-.60991,9.55082,2.19332,13.83a1.00881,1.00881,0,0,0,.54112.38432c1.23671,0.32657,3.57917-.66744,3.9432-1.93076C48.554,16.61988,49.32655,13.23944,50.17319,9.88034Zm-12.91663,17.175,0.2208-.48177c2.26645,0.0372,4.14119-2.76178,3.02681-4.67909a58.44876,58.44876,0,0,0-3.94947-6.03965c-1.29913-1.70776-4.94482-2.794-6.81294-.3696a8.6731,8.6731,0,0,0-1.08364,3.43751,4.46018,4.46018,0,0,0,1.85932,5.00481A61.29807,61.29807,0,0,0,37.25656,27.05537Zm15.0752-2.18406a21.24,21.24,0,0,0,2.8586-.69192A71.37677,71.37677,0,0,0,63.0987,20.797a3.65318,3.65318,0,0,0,1.41694-4.58251,5.04209,5.04209,0,0,0-3.11606-2.4878c-1.83843-.47534-3.54347.45774-4.84722,1.91072-1.30592,1.45553-2.56091,2.9638-3.95243,4.33289a23.994,23.994,0,0,1-2.91746,2.10655C50.41985,22.85458,51.39962,23.8881,52.33177,24.8713ZM48.63584,73.69417l0.37291,0.55909a49.82784,49.82784,0,0,1,6.2167-2.76951,6.65855,6.65855,0,0,0,4.12038-3.05522q2.67928-4.57475,5.2304-9.224c0.90254-1.64593,1.67422-3.3636,2.505-5.04889l-0.38884-.25016C59.98543,59.86973,53.29882,65.85281,48.63584,73.69417ZM63.594,53.14264a17.98918,17.98918,0,0,0-1.7127.796A70.35643,70.35643,0,0,0,55.394,57.9187a51.42489,51.42489,0,0,0-7.45959,6.42012,12.5033,12.5033,0,0,0-3.01993,10.926C49.64138,66.6076,57.105,60.3705,63.594,53.14264ZM50.17519,26.31726a3.78726,3.78726,0,0,0-.93406-1.3096,5.85446,5.85446,0,0,0-5.78189-.44711c-1.93838.81863-2.4075,2.59766-.91012,4.04528a6.40833,6.40833,0,0,0,2.78746,1.38964C47.15831,30.46852,50.13862,28.38343,50.17519,26.31726Z"/><text x="0" y="115" fill="#000000" font-size="5px" font-weight="bold" font-family="'Helvetica Neue', Helvetica, Arial-Unicode, Arial, Sans-serif">Created by Roman</text><text x="0" y="120" fill="#000000" font-size="5px" font-weight="bold" font-family="'Helvetica Neue', Helvetica, Arial-Unicode, Arial, Sans-serif">from the Noun Project</text></svg>