<svg xmlns="http://www.w3.org/2000/svg" data-name="Слой 1" viewBox="0 0 100 125" x="0px" y="0px"><title>mountains_Монтажная область 1_Монтажная область 1</title><path d="M94.187,53.70853l-4.65429-8.37744a.50076.50076,0,0,0-.23389-.21436l-8.28223-3.68066L70.84768,30.34232a.51125.51125,0,0,0-.05249-.0376.49617.49617,0,0,0-.09961-.07129.451.451,0,0,0-.09461-.02911.4795.4795,0,0,0-.10205-.01843c-.01068-.00006-.02093-.00647-.03161-.00568a.48548.48548,0,0,0-.05994.01447.4647.4647,0,0,0-.07385.007c-.01361.00415-.023.01423-.03595.01941a.61407.61407,0,0,0-.16962.11292c-.01.01013-.024.01483-.0332.02588l-4.603,5.52392-7.37891,4.61182a.50865.50865,0,0,0-.08837.07031l-1.07813,1.07984L46.5635,33.29056c-.0083-.00671-.01984-.0039-.02844-.01a.49123.49123,0,0,0-.27234-.09619c-.01361-.0003-.02484.00433-.03845.00513a.496.496,0,0,0-.13929.01855.48632.48632,0,0,0-.12274.07294c-.00745.00531-.01752.00287-.02472.0086l-4.93017,3.94434-2.91553.97217a.49525.49525,0,0,0-.16016.08838l-6.96039,5.7428L24.30276,36.856a.42477.42477,0,0,0-.0434-.0296.49108.49108,0,0,0-.11786-.08045c-.00885-.00378-.01807-.005-.02716-.00824a.48786.48786,0,0,0-.17615-.03375l-.00677.00067a.49164.49164,0,0,0-.14282.01416c-.01416.0044-.02393.0149-.03736.02039a.46621.46621,0,0,0-.04809.02624.49162.49162,0,0,0-.11048.07532c-.00665.00635-.016.00849-.02234.01526L11.53078,49.82132l-5.50439,2.752a.50006.50006,0,0,0,.44726.89453l5.58545-2.79248a.4947.4947,0,0,0,.14258-.10694l11.51319-12.3985,1.11572,3.60016a.49442.49442,0,0,0,.124.20557l3.8999,3.89941,1.27979,3.45606,1.29053,4.07764a.49785.49785,0,0,0,.19238.26074l6.48242,4.47412L43.502,69.53421a.49995.49995,0,1,0,.90333-.42871L38.94582,57.59378a.50023.50023,0,0,0-.16748-.19726l-6.45215-4.45313-1.24658-3.93652-1.32568-3.58154a.49753.49753,0,0,0-.11524-.18018L25.74905,41.356l-.68512-2.21075L35.67141,50.56839a.4947.4947,0,0,0,.14258.10694l9.21142,4.606,7.96973,9.81006a.50018.50018,0,1,0,.77637-.63086l-8.0376-9.89355a.50138.50138,0,0,0-.16455-.13184l-1.62061-.81036,8.2666-5.83563.82129-.82123.00092-.00092,5.65387-5.65344L66.08987,36.689a.5024.5024,0,0,0,.11914-.10352l4.06134-4.8739,2.97821,9.77674a.50516.50516,0,0,0,.085.16308l2.65088,3.38037a.50163.50163,0,0,0,.08691.08643l6.89746,5.34863L89.89553,62.7974a.50021.50021,0,1,0,.87207-.49024L83.791,49.88871a.50157.50157,0,0,0-.1294-.14991l-6.92822-5.373-2.55518-3.25782-2.57873-8.46576,8.75012,9.54633a.49976.49976,0,0,0,.16553.11914l8.22461,3.65527,4.57324,8.231a.49957.49957,0,0,0,.4375.25733.49407.49407,0,0,0,.24219-.063A.49945.49945,0,0,0,94.187,53.70853ZM52.85927,45.73935,51.7759,43.12259a.50537.50537,0,0,0-.0498-.09179l-3.41553-4.96827-1.01172-2.89642,8.93677,7.19153Zm-9.92535,7.37793-6.59161-3.296-4.68921-5.0498L38.4966,39.125l2.91162-.9707a.50868.50868,0,0,0,.1543-.0835l4.44824-3.55889,1.37793,3.94366a.50831.50831,0,0,0,.06006.11816l3.42334,4.98,1.22211,2.95185-.52045.5213Z"/><text x="0" y="115" fill="#000000" font-size="5px" font-weight="bold" font-family="'Helvetica Neue', Helvetica, Arial-Unicode, Arial, Sans-serif">Created by Alex Muravev</text><text x="0" y="120" fill="#000000" font-size="5px" font-weight="bold" font-family="'Helvetica Neue', Helvetica, Arial-Unicode, Arial, Sans-serif">from the Noun Project</text></svg>