<svg xmlns="http://www.w3.org/2000/svg" data-name="Layer 68" viewBox="0 0 100 125" x="0px" y="0px"><path d="M62.65,51.78c0-2.53,1.79-4.59,4-4.59s4,2.06,4,4.59v2.07l3.87-.08v-1.5a3.55,3.55,0,1,1,7.07,0v5.17a.75.75,0,0,1-.75.75h0l-3.44-.06v2.81h0a4.2,4.2,0,0,1,4.19,4.19v5.72a.75.75,0,0,1-.71.75l-3.5.22v1.7c8.28-.76,14.92-1.82,16.92-2.16V40.66c-5-4-17-8.32-34.94-7.94V54.1L62.65,54Zm23.16-8.61a3,3,0,1,1,6,0V47a.75.75,0,0,1-.75.75h0l-4.54-.08a.75.75,0,0,1-.74-.75ZM85.3,53.54a3.57,3.57,0,0,1,7.07,0v3.9a.75.75,0,0,1-.75.75h0L86,58.12a.75.75,0,0,1-.74-.75Zm-1,11.58c0-2,1.88-3.56,4.19-3.56s4.19,1.59,4.19,3.56V69.8a.76.76,0,0,1-.68.75l-6.88.63H85a.78.78,0,0,1-.5-.19.75.75,0,0,1-.25-.56ZM75.24,40a3.42,3.42,0,0,1,6.84,0v4.45a.77.77,0,0,1-.22.54.78.78,0,0,1-.53.21h0L76,45.12a.75.75,0,0,1-.74-.75Zm-11.58-1.2a3.42,3.42,0,1,1,6.84,0v4.45a.72.72,0,0,1-.23.53.74.74,0,0,1-.52.22h0l-5.34-.09a.75.75,0,0,1-.73-.75Z"/><path d="M91.17,65.12c0-1.14-1.21-2.06-2.69-2.06s-2.69.92-2.69,2.06v4.49l5.38-.49Z"/><path d="M90.87,53.54a2.1,2.1,0,0,0-4.07,0v3.09l4.07,0Z"/><path d="M77.33,56.63l2.71,0V52.27a2.06,2.06,0,1,0-4.07,0v1.46h.59a.72.72,0,0,1,.54.21.74.74,0,0,1,.23.54Z"/><path d="M64.15,51.78V54l4.95-.11V51.78c0-1.7-1.11-3.09-2.47-3.09S64.15,50.08,64.15,51.78Z"/><path d="M90.35,43.17a1.52,1.52,0,1,0-3,0v3l3,.05Z"/><path d="M80.58,40a1.92,1.92,0,0,0-3.84,0v3.63l3.84.06Z"/><path d="M69,38.81a1.92,1.92,0,1,0-3.84,0v3.62L69,42.5Z"/><path d="M80,65.13a2.69,2.69,0,0,0-2.69-2.69h0v7.88L80,70.15Z"/><path d="M39.21,30.22c-20.34,2-31.39,7.49-33.46,8.61v2.86C8.61,39.77,17,35.74,39.21,33Z"/><path d="M10.14,31.62a4.19,4.19,0,0,1,7.14-3,4.13,4.13,0,0,1,1.23,3v.77c1.93-.53,4.06-1.05,6.4-1.54v-3a4.79,4.79,0,0,1,9.58,0v1.39c1.51-.19,3.09-.37,4.72-.53V19.39c-20.43.18-31.58,7.45-33.46,8.79v9c.91-.47,2.37-1.16,4.39-2Z"/><path d="M57.81,54.11V50.74c-32.33-.65-49.2,5.35-52.06,6.48v2.45C9.51,58.13,23.47,53.69,57.81,54.11Z"/><path d="M9.36,46.76c0-2.37,2.22-4.29,5-4.29a5.33,5.33,0,0,1,3.46,1.22,4,4,0,0,1,1.5,3.07v5.31c2-.37,4.1-.74,6.46-1.08V44.05a5.22,5.22,0,0,1,5-5.44,4.73,4.73,0,0,1,3.54,1.62,5.68,5.68,0,0,1,1.42,3.82v5.84c2.34-.2,4.8-.36,7.41-.48V43.68c0-3.62,2.53-6.57,5.63-6.57a5.19,5.19,0,0,1,4,2,7.16,7.16,0,0,1,1.6,4.59v5.51c1.14,0,2.31,0,3.49.05V32.73L52,33.28l1.08-.23C15.9,36.05,7,42.47,5.75,43.58v12c.77-.29,2-.7,3.61-1.19Z"/><path d="M8.91,65.94c0-2.76,2.67-5,5.95-5A6.57,6.57,0,0,1,19,62.35a4.63,4.63,0,0,1,1.79,3.59V77.23c1.57.2,3.22.39,4.94.58V65.32a5.95,5.95,0,0,1,11.89,0V78.89c1.67.12,3.39.23,5.12.32V65.42a6.23,6.23,0,0,1,6-6.47,5.66,5.66,0,0,1,4.23,1.93,6.71,6.71,0,0,1,1.71,4.54V79.61h5.55V65.07c0-3.85,2.66-7,5.94-7a5.53,5.53,0,0,1,4.25,2.1,7.6,7.6,0,0,1,1.69,4.89V79.62h3.76V55.24l-17.25.38h0c-36.73-.54-50.41,4.64-52.79,5.69V75.08l3.16.52Z"/><path d="M18.05,63.51a5,5,0,0,0-3.19-1.07c-2.45,0-4.45,1.57-4.45,3.5v9.89c3,.45,5.95.86,8.89,1.22V65.94A3.13,3.13,0,0,0,18.05,63.51Z"/><path d="M10.86,46.76V54c1.87-.51,4.18-1.08,6.92-1.64v-5.6a2.54,2.54,0,0,0-1-1.93,3.92,3.92,0,0,0-2.5-.86C12.41,44,10.86,45.22,10.86,46.76Z"/><path d="M27.24,44.05v6.74q3.23-.43,6.92-.77v-6a4.21,4.21,0,0,0-1-2.82,3.25,3.25,0,0,0-2.42-1.12A3.73,3.73,0,0,0,27.24,44.05Z"/><path d="M48.7,38.61c-2.28,0-4.13,2.27-4.13,5.07v5.67c2.62-.1,5.37-.16,8.25-.16V43.68a5.71,5.71,0,0,0-1.26-3.63A3.7,3.7,0,0,0,48.7,38.61Z"/><path d="M11.64,31.62v3C13.17,34,15,33.42,17,32.82v-1.2a2.65,2.65,0,0,0-.79-1.9,2.69,2.69,0,0,0-4.58,1.9Z"/><path d="M26.41,27.85v2.7c2-.4,4.24-.78,6.58-1.11V27.85a3.25,3.25,0,0,0-1-2.32,3.3,3.3,0,0,0-5.62,2.32Z"/><path d="M31.68,60.88a4.44,4.44,0,0,0-4.44,4.44V78c2.89.3,5.88.57,8.89.81V65.32a4.44,4.44,0,0,0-4.45-4.44Z"/><path d="M48.7,60.45a4.74,4.74,0,0,0-4.45,5V79.3c3.18.16,6.1.26,8.89.3V65.42a5.21,5.21,0,0,0-1.32-3.53A4.19,4.19,0,0,0,48.7,60.45Z"/><path d="M66.13,59.58c-2.45,0-4.44,2.46-4.44,5.49V79.62h8.88V65.07a6.15,6.15,0,0,0-1.34-3.93A4,4,0,0,0,66.13,59.58Z"/><text x="0" y="115" fill="#000000" font-size="5px" font-weight="bold" font-family="'Helvetica Neue', Helvetica, Arial-Unicode, Arial, Sans-serif">Created by Lars Meiertoberens</text><text x="0" y="120" fill="#000000" font-size="5px" font-weight="bold" font-family="'Helvetica Neue', Helvetica, Arial-Unicode, Arial, Sans-serif">from the Noun Project</text></svg>