<svg xmlns="http://www.w3.org/2000/svg" xmlns:xlink="http://www.w3.org/1999/xlink" version="1.1" x="0px" y="0px" viewBox="0 0 48 60" enable-background="new 0 0 48 48" xml:space="preserve"><g><path d="M44,9.8H22.6l4.3-4.3c0.4-0.4,0.4-1,0-1.4c-0.4-0.4-1-0.4-1.4,0l-4.7,4.7l-7.3-7.3c-0.4-0.4-1-0.4-1.4,0   c-0.4,0.4-0.4,1,0,1.4L19,9.8H4c-2.2,0-4,1.8-4,4v25.4c0,2.2,1.8,4,4,4h1.4v2.7c0,0.6,0.4,1,1,1h5.8c0.6,0,1-0.4,1-1v-2.7h21.7v2.7   c0,0.6,0.4,1,1,1h5.8c0.6,0,1-0.4,1-1v-2.7H44c2.2,0,4-1.8,4-4V13.8C48,11.6,46.2,9.8,44,9.8z M11.1,44.8H7.4v-1.6h3.8V44.8z    M40.6,44.8h-3.8v-1.6h3.8V44.8z M46,39.1c0,1.1-0.9,2-2,2H4c-1.1,0-2-0.9-2-2V13.8c0-1.1,0.9-2,2-2h40c1.1,0,2,0.9,2,2V39.1z"/><path d="M31,13.8H8c-2.2,0-4,1.8-4,4v17.4c0,2.2,1.8,4,4,4h23c2.2,0,4-1.8,4-4V17.8C35,15.6,33.2,13.8,31,13.8z M33,35.1   c0,1.1-0.9,2-2,2H8c-1.1,0-2-0.9-2-2V17.8c0-1.1,0.9-2,2-2h23c1.1,0,2,0.9,2,2V35.1z"/><path d="M42.9,35.3h-4.4c-0.6,0-1,0.4-1,1s0.4,1,1,1h4.4c0.6,0,1-0.4,1-1S43.5,35.3,42.9,35.3z"/><path d="M42.9,30h-4.4c-0.6,0-1,0.4-1,1s0.4,1,1,1h4.4c0.6,0,1-0.4,1-1S43.5,30,42.9,30z"/><path d="M40.8,15.3c-2.2,0-4.1,1.8-4.1,4.1s1.8,4.1,4.1,4.1c2.2,0,4.1-1.8,4.1-4.1S43,15.3,40.8,15.3z M40.8,21.5   c-1.1,0-2.1-0.9-2.1-2.1s0.9-2.1,2.1-2.1c1.1,0,2.1,0.9,2.1,2.1S41.9,21.5,40.8,21.5z"/></g><text x="0" y="63" fill="#000000" font-size="5px" font-weight="bold" font-family="'Helvetica Neue', Helvetica, Arial-Unicode, Arial, Sans-serif">Created by Vectors Market</text><text x="0" y="68" fill="#000000" font-size="5px" font-weight="bold" font-family="'Helvetica Neue', Helvetica, Arial-Unicode, Arial, Sans-serif">from the Noun Project</text></svg>